<?xml version="1.0" standalone="no"?>
<!DOCTYPE svg PUBLIC "-//W3C//DTD SVG 20010904//EN"
 "http://www.w3.org/TR/2001/REC-SVG-20010904/DTD/svg10.dtd">
<svg version="1.0" xmlns="http://www.w3.org/2000/svg"
 width="384.000000pt" height="384.000000pt" viewBox="0 0 384.000000 384.000000"
 preserveAspectRatio="xMidYMid meet">
<metadata>
Created by potrace 1.14, written by Peter Selinger 2001-2017
</metadata>
<g transform="translate(0.000000,384.000000) scale(0.100000,-0.100000)"
fill="#000000" stroke="none">
<path d="M2871 3680 c1 -88 -1 -163 -5 -167 -3 -3 -6 -13 -5 -22 0 -12 3 -11
10 4 5 12 8 -155 6 -442 -3 -452 -3 -462 16 -452 27 15 30 6 6 -19 -39 -42
-114 -72 -196 -78 -43 -3 -90 -7 -105 -9 -38 -6 -35 11 5 35 l32 20 -40 0
c-22 0 -45 -4 -51 -8 -6 -4 -11 -33 -12 -64 -1 -57 -1 -58 43 -90 40 -30 58
-58 36 -58 -5 0 -25 -7 -45 -15 -32 -14 -35 -17 -26 -40 5 -14 6 -25 2 -25 -4
0 -8 -28 -8 -62 -1 -37 -6 -64 -13 -66 -17 -6 -13 -22 6 -22 15 0 14 -2 -3
-15 -12 -9 -14 -14 -6 -15 7 0 10 -5 7 -11 -5 -6 -12 -4 -22 8 -14 17 -14 17
-10 -4 5 -24 4 -24 -103 -8 -14 2 -32 0 -39 -4 -9 -6 -2 -10 20 -14 66 -9 194
-37 214 -46 11 -4 36 -15 55 -23 32 -14 33 -16 15 -26 -15 -7 -43 -6 -104 5
-69 13 -90 13 -122 3 -21 -7 -57 -13 -81 -14 -37 -1 -43 2 -46 22 -3 21 -32
32 -32 12 0 -5 -7 -10 -15 -10 -8 0 -15 6 -15 13 0 8 -3 9 -8 1 -9 -13 -100
-25 -107 -14 -3 5 -19 5 -35 0 -19 -5 -30 -5 -30 1 0 6 -6 7 -12 2 -7 -4 -24
-6 -37 -4 -17 2 -21 -1 -15 -11 6 -11 5 -11 -8 0 -12 9 -18 10 -23 2 -5 -8
-11 -7 -18 4 -21 26 -60 24 -75 -3 -9 -17 -9 -28 -2 -35 5 -5 10 -15 10 -20 0
-6 -7 -3 -15 8 -13 18 -16 18 -55 2 -165 -66 -468 -234 -448 -249 9 -6 8 -7
-5 -3 -25 8 -43 -4 -26 -16 11 -7 9 -8 -4 -4 -12 4 -40 -9 -78 -34 -32 -23
-59 -36 -59 -29 0 8 -4 8 -15 -1 -8 -7 -15 -16 -15 -21 0 -15 37 -10 50 6 7 8
17 15 22 15 6 0 4 -8 -3 -17 -8 -9 7 -2 34 16 26 18 45 36 43 40 -6 8 51 7 59
-1 3 -3 -6 -13 -21 -22 -14 -10 -28 -15 -32 -12 -3 3 0 6 6 6 7 0 12 5 12 10
0 13 -22 1 -64 -34 l-28 -24 33 -10 c19 -6 88 -27 154 -47 119 -36 120 -37
182 -102 66 -69 119 -162 109 -188 -3 -9 -2 -13 4 -10 6 3 10 1 10 -4 0 -6 -4
-11 -10 -11 -5 0 -7 -7 -4 -15 5 -11 -2 -15 -27 -16 -50 -2 -89 0 -131 5 -21
3 -38 1 -38 -4 0 -6 10 -11 23 -11 16 -1 17 -3 5 -6 -9 -2 -34 7 -55 21 l-38
26 43 0 c31 0 42 4 42 15 0 8 7 15 15 15 17 0 20 25 5 35 -5 3 -10 11 -10 17
0 6 9 3 20 -7 15 -14 20 -15 20 -4 -1 37 -22 44 -135 44 -107 0 -110 -1 -113
-23 -3 -17 -8 -22 -20 -17 -76 29 -372 59 -357 36 3 -6 16 -11 28 -11 12 0 45
-7 72 -15 l50 -14 -85 5 c-65 3 -79 2 -61 -6 14 -6 78 -12 143 -13 65 -1 115
-3 110 -4 -4 -2 -32 -7 -62 -12 -47 -8 -37 -9 77 -9 l131 0 67 -40 68 -40 -44
-7 c-51 -7 -864 1 -1046 11 -67 3 -188 3 -268 -1 l-145 -7 0 -37 0 -36 473 -2
c471 -2 647 -9 597 -24 -14 -4 -40 -7 -57 -8 -18 -1 -67 -13 -108 -27 -70 -24
-77 -25 -88 -10 -12 16 -18 16 -91 1 -43 -9 -89 -20 -103 -26 -30 -11 -46 -12
-39 0 3 4 35 17 71 27 l66 19 -338 5 c-215 3 -346 1 -360 -5 -22 -10 -23 -13
-23 -182 l0 -171 94 -4 c89 -3 118 -10 103 -24 -4 -4 -49 -9 -102 -12 l-95 -5
0 -293 0 -294 1706 0 1707 0 213 142 214 143 0 352 0 353 -109 0 c-60 0 -111
-3 -113 -7 -1 -5 -130 -6 -285 -3 -272 5 -283 6 -304 27 l-22 21 79 8 c44 5
231 8 416 8 l337 0 1 793 c0 531 -3 792 -10 788 -5 -3 -10 -1 -10 4 0 6 5 11
10 11 7 0 10 207 10 600 l0 600 -486 0 -485 0 2 -160z m222 -396 c9 -9 -4 -35
-14 -28 -5 3 -9 12 -9 20 0 14 12 19 23 8z m-93 -14 c0 -5 -5 -10 -11 -10 -5
0 -7 5 -4 10 3 6 8 10 11 10 2 0 4 -4 4 -10z m710 -10 c0 -5 -7 -7 -15 -4 -8
4 -15 8 -15 10 0 2 7 4 15 4 8 0 15 -4 15 -10z m-120 -64 c-15 -15 -33 4 -19
20 10 12 14 12 20 2 5 -7 4 -17 -1 -22z m-155 14 c4 -6 -6 -10 -22 -10 -22 0
-25 2 -13 10 19 12 27 12 35 0z m40 0 c3 -5 -1 -10 -9 -10 -9 0 -16 5 -16 10
0 6 4 10 9 10 6 0 13 -4 16 -10z m-445 -170 c0 -5 -7 -10 -15 -10 -8 0 -15 5
-15 10 0 6 7 10 15 10 8 0 15 -4 15 -10z m-33 -182 c-3 -7 -5 -2 -5 12 0 14 2
19 5 13 2 -7 2 -19 0 -25z m620 -14 c-3 -3 -12 -4 -19 -1 -8 3 -5 6 6 6 11 1
17 -2 13 -5z m-607 -233 c0 -6 -4 -13 -10 -16 -5 -3 -10 1 -10 9 0 9 5 16 10
16 6 0 10 -4 10 -9z m-135 -131 c4 -6 -20 -10 -67 -9 -52 1 -66 3 -48 9 36 12
108 12 115 0z m12 -57 c-3 -10 -5 -4 -5 12 0 17 2 24 5 18 2 -7 2 -21 0 -30z
m-246 -51 c9 -15 21 -17 70 -14 l59 4 -2 -80 c-1 -45 0 -84 4 -87 3 -4 20 1
37 10 18 9 36 13 41 10 12 -7 19 23 23 95 3 54 3 54 5 -12 l2 -66 47 14 c129
39 253 -6 253 -92 0 -29 -8 -44 -39 -75 -21 -22 -48 -39 -60 -39 -28 0 -27 13
2 25 15 7 23 20 25 44 3 24 0 31 -9 26 -7 -5 -17 -1 -25 10 -11 14 -20 16 -51
9 -54 -11 -57 -11 -66 1 -5 5 -5 0 -2 -12 5 -17 2 -23 -9 -23 -9 0 -16 -4 -16
-10 0 -6 -9 -6 -24 0 -21 8 -23 6 -18 -12 4 -15 0 -19 -14 -18 -10 1 -26 2
-34 1 -13 -1 -13 -2 0 -12 11 -7 3 -8 -30 -4 -29 4 -40 3 -31 -3 23 -17 -7
-24 -31 -8 -20 13 -27 13 -55 -1 -18 -8 -31 -19 -28 -23 8 -13 -22 -19 -34 -7
-8 8 -11 5 -11 -12 0 -21 -2 -22 -17 -10 -9 8 -24 13 -33 11 -9 -1 -23 4 -30
13 -10 12 -9 19 4 39 8 14 26 28 38 32 l23 7 -24 9 c-18 6 -22 13 -16 31 9 27
9 40 4 97 -3 44 -2 46 35 65 50 26 54 38 20 64 -19 15 -22 21 -10 21 9 0 21
-8 27 -18z m377 -25 c2 -12 -3 -17 -17 -17 -12 0 -21 6 -21 13 0 31 32 34 38
4z m46 -213 c6 -15 4 -15 -11 -3 -10 7 -20 15 -22 16 -2 2 3 3 11 3 9 0 19 -7
22 -16z m298 -116 c-13 -13 -26 8 -17 30 6 16 7 16 17 -1 7 -13 7 -22 0 -29z
m425 0 c-3 -8 -6 -5 -6 6 -1 11 2 17 5 13 3 -3 4 -12 1 -19z m-887 -99 c0 -54
-3 -99 -7 -99 -3 0 -16 8 -27 17 -12 10 -9 4 7 -13 l27 -30 -15 -52 c-14 -45
-39 -84 -92 -140 -7 -7 -13 -18 -13 -23 0 -13 -44 -11 -58 3 -9 9 -12 9 -12
-3 0 -7 -4 -20 -9 -28 -8 -12 -12 -12 -26 2 -9 9 -13 23 -10 29 4 7 -1 4 -9
-6 -9 -11 -16 -14 -16 -7 0 7 -5 9 -12 5 -8 -5 -9 -2 -3 12 4 10 9 30 11 44 1
14 3 28 3 32 1 4 13 8 28 10 50 6 83 117 35 118 -15 1 -14 3 3 16 14 11 16 18
8 21 -20 7 -15 30 8 47 20 13 20 14 2 19 -14 4 -12 5 7 7 23 1 23 2 5 10 -11
5 -14 9 -7 9 7 1 34 -13 60 -30 l47 -32 -42 44 c-24 25 -43 50 -43 56 0 6 10
18 23 26 30 19 110 46 120 40 4 -2 7 -49 7 -104z m255 80 c4 -6 5 -12 2 -15
-7 -7 -37 7 -37 17 0 13 27 11 35 -2z m545 -39 c0 -5 -4 -10 -10 -10 -5 0 -10
5 -10 10 0 6 5 10 10 10 6 0 10 -4 10 -10z m-1135 -40 c-16 -4 -34 -4 -40 -1
-16 9 -28 8 -50 -2 -19 -10 -19 -9 -2 10 16 18 22 19 70 9 48 -9 50 -11 22
-16z m-605 -9 c0 -5 9 -7 20 -4 14 4 20 0 20 -11 0 -24 -54 -18 -58 7 -2 9 1
17 7 17 6 0 11 -4 11 -9z m710 -21 c-20 -29 -21 -32 -6 -55 20 -31 20 -45 0
-45 -8 0 -12 5 -9 10 9 14 -29 12 -43 -2 -7 -7 -12 -8 -12 -4 0 5 -7 3 -15 -4
-33 -27 -12 5 43 66 63 70 74 79 42 34z m-225 10 c-3 -5 -11 -10 -16 -10 -6 0
-7 5 -4 10 3 6 11 10 16 10 6 0 7 -4 4 -10z m83 -2 c-5 -14 -68 -20 -68 -7 0
10 19 17 48 18 15 1 22 -4 20 -11z m-736 -88 c-149 -144 -255 -239 -262 -235
-14 9 -41 -7 -36 -20 6 -17 -15 -25 -65 -25 -31 0 -39 4 -39 18 0 12 9 18 26
20 14 1 23 -2 20 -7 -3 -5 3 -11 14 -14 24 -6 25 1 4 24 -18 20 -62 12 -90
-15 -17 -17 -34 -21 -34 -8 0 10 47 46 73 55 21 8 22 23 2 31 -8 3 -15 10 -15
17 0 6 7 8 16 5 9 -4 13 -2 8 5 -4 8 1 9 17 5 24 -7 24 -7 4 10 -20 16 -20 16
4 9 20 -6 23 -4 18 9 -5 13 -3 16 11 12 9 -3 24 -1 32 4 11 7 11 10 2 10 -7 0
-10 5 -7 10 4 6 10 8 15 5 15 -9 121 55 113 68 -3 7 -3 9 2 5 5 -5 37 8 72 28
35 19 80 41 101 48 32 12 38 11 44 -3 4 -11 -10 -32 -50 -71z m838 87 c0 -2
-19 -21 -42 -42 l-43 -40 40 43 c36 39 45 47 45 39z m-240 -27 c0 -5 -5 -10
-11 -10 -5 0 -7 5 -4 10 3 6 8 10 11 10 2 0 4 -4 4 -10z m160 -10 c0 -11 -2
-20 -4 -20 -2 0 -6 9 -9 20 -3 11 -1 20 4 20 5 0 9 -9 9 -20z m-679 -13 c-10
-9 -11 -8 -5 6 3 10 9 15 12 12 3 -3 0 -11 -7 -18z m82 8 c-3 -9 -8 -14 -10
-11 -3 3 -2 9 2 15 9 16 15 13 8 -4z m467 0 c-7 -9 -15 -13 -19 -10 -3 3 1 10
9 15 21 14 24 12 10 -5z m937 -17 c-3 -7 -5 -2 -5 12 0 14 2 19 5 13 2 -7 2
-19 0 -25z m333 22 c0 -5 -2 -10 -4 -10 -3 0 -8 5 -11 10 -3 6 -1 10 4 10 6 0
11 -4 11 -10z m-1205 -50 c3 -5 2 -10 -4 -10 -5 0 -13 5 -16 10 -3 6 -2 10 4
10 5 0 13 -4 16 -10z m902 -16 c2 -6 -5 -14 -17 -17 -15 -4 -20 0 -20 15 0 21
30 23 37 2z m-987 -13 c0 -9 -239 -186 -307 -227 -31 -19 -64 -34 -72 -34 -13
1 -12 3 3 11 12 7 15 14 7 18 -6 4 32 35 86 71 105 70 173 126 173 142 0 18
-266 3 -332 -17 -57 -18 -112 -14 -77 6 32 17 225 36 372 37 81 0 147 -3 147
-7z m614 -7 c27 -26 34 -47 42 -114 4 -36 13 -79 21 -97 7 -18 13 -38 12 -45
0 -7 -4 -4 -9 7 -6 14 -9 16 -11 5 -1 -8 -5 3 -8 24 -6 37 -31 64 -31 33 0
-18 -27 -30 -35 -17 -4 6 1 10 9 10 9 0 16 4 16 10 0 5 -6 7 -14 4 -21 -8 -29
12 -28 72 0 45 -4 58 -28 83 -15 17 -25 33 -22 36 12 11 71 4 86 -11z m-1444
2 c0 -2 -11 -11 -25 -20 -14 -9 -25 -13 -25 -8 0 5 10 14 23 20 27 13 27 13
27 8z m856 -29 c-17 -17 -26 -21 -26 -12 0 14 40 48 48 41 2 -2 -8 -15 -22
-29z m69 23 c-3 -5 -13 -10 -21 -10 -8 0 -12 5 -9 10 3 6 13 10 21 10 8 0 12
-4 9 -10z m65 6 c0 -2 -7 -6 -15 -10 -8 -3 -15 -1 -15 4 0 6 7 10 15 10 8 0
15 -2 15 -4z m100 -26 c0 -5 -5 -10 -11 -10 -5 0 -7 5 -4 10 3 6 8 10 11 10 2
0 4 -4 4 -10z m417 -72 c-3 -7 -5 -2 -5 12 0 14 2 19 5 13 2 -7 2 -19 0 -25z
m-587 1 c0 -5 -12 -6 -27 -3 -42 10 -47 21 -8 16 19 -2 35 -8 35 -13z m827
-41 c-3 -8 -6 -5 -6 6 -1 11 2 17 5 13 3 -3 4 -12 1 -19z m49 -15 c-3 -4 4
-13 15 -21 12 -8 32 -38 45 -66 l24 -51 -93 -3 c-110 -3 -137 2 -137 27 0 11
-6 21 -12 23 -18 6 16 56 47 70 14 6 23 14 21 17 -3 4 13 5 35 3 35 -4 39 -2
39 19 1 22 2 22 11 6 6 -10 8 -21 5 -24z m-1975 2 c-1 -15 -24 -12 -29 3 -3 9
2 13 12 10 10 -1 17 -7 17 -13z m1797 -70 l-3 -25 -28 30 c-26 27 -27 30 -9
30 11 0 23 -8 25 -17 3 -10 6 0 7 22 2 32 4 34 7 13 2 -16 3 -39 1 -53z
m-1528 40 c-10 -12 -7 -18 19 -32 49 -29 64 -91 36 -157 -14 -33 -17 -35 -40
-24 -18 8 -24 16 -19 27 19 44 16 70 -11 95 -15 14 -31 23 -36 21 -4 -3 -11 0
-15 6 -4 8 -3 9 4 5 22 -13 12 11 -10 27 -20 14 -21 18 -8 27 8 6 24 9 36 7
11 -2 26 3 33 10 17 19 27 8 11 -12z m1574 6 c-10 -10 -21 -14 -23 -8 -4 10
17 27 33 27 5 0 1 -8 -10 -19z m-1944 5 c0 -2 -12 -11 -27 -20 l-28 -17 24 20
c23 21 31 25 31 17z m435 -16 c28 -17 32 -25 32 -62 l0 -43 -13 31 c-7 18 -25
41 -39 52 -23 18 -34 42 -19 42 4 0 21 -9 39 -20z m-190 -38 c-3 -3 -11 0 -18
7 -9 10 -8 11 6 5 10 -3 15 -9 12 -12z m1348 -5 c7 3 1 -6 -13 -21 -20 -22
-26 -25 -28 -11 -4 19 20 53 26 36 2 -6 9 -8 15 -4z m-1518 -17 c3 -5 -1 -10
-10 -10 -9 0 -13 5 -10 10 3 6 8 10 10 10 2 0 7 -4 10 -10z m154 -9 c9 -6 6
-8 -13 -8 -14 0 -23 3 -20 8 7 11 15 11 33 0z m794 -38 c55 -16 107 -51 107
-72 0 -12 -21 -5 -103 33 -29 13 -70 30 -92 37 -22 7 -44 16 -49 20 -13 11 73
0 137 -18z m-790 -3 c6 -23 -5 -25 -36 -8 -21 11 -21 11 -2 19 30 11 32 11 38
-11z m121 4 c8 -22 7 -47 -3 -63 -7 -11 -14 -10 -39 8 -17 11 -35 21 -41 21
-16 0 -14 10 6 32 20 22 69 24 77 2z m2086 -3 c0 -14 -36 -19 -72 -11 l-33 8
37 1 c20 1 40 6 43 11 7 11 25 4 25 -9z m-1920 -17 c0 -15 12 -19 23 -7 4 3
31 8 60 10 28 3 63 6 77 7 14 1 35 -1 48 -6 14 -5 22 -4 22 3 0 7 10 9 23 6
46 -11 159 -57 186 -77 34 -24 45 -25 38 -5 -12 29 42 -7 68 -47 14 -21 37
-44 50 -50 14 -6 25 -15 25 -20 0 -5 5 -6 10 -3 6 3 10 -5 10 -19 0 -13 -5
-26 -11 -28 -5 -2 -12 -10 -14 -18 -10 -46 -19 -60 -39 -62 -11 0 -59 -3 -106
-5 -47 -2 -114 -9 -150 -15 -106 -20 -197 -16 -255 10 -41 19 -56 34 -83 79
-18 31 -40 78 -49 104 -16 44 -16 48 0 72 9 15 17 38 17 51 0 18 4 24 15 20
10 -4 15 0 15 11 0 9 5 13 10 10 6 -3 10 -13 10 -21z m1702 -9 c81 -3 158 -9
170 -14 13 -4 44 -11 71 -15 29 -5 45 -11 41 -18 -7 -11 -55 -9 -269 12 -89 9
-137 9 -190 1 -38 -6 -99 -13 -135 -16 -36 -2 -102 -7 -147 -11 -70 -6 -92 -4
-153 16 -39 12 -72 26 -75 30 -2 3 64 12 148 19 83 7 152 13 154 14 1 1 55 -1
120 -5 65 -4 184 -9 265 -13z m-299 -244 c-1 -2 -14 4 -28 13 -14 9 -29 15
-33 12 -10 -6 -22 2 -47 33 -11 14 -14 21 -7 17 14 -9 17 10 2 19 -6 3 -17 20
-26 37 -11 21 9 6 63 -48 43 -44 77 -81 76 -83z m117 110 c0 -14 -18 -23 -30
-16 -6 4 -8 11 -5 16 8 12 35 12 35 0z m-1554 -105 c13 -28 23 -67 23 -86 0
-29 -4 -24 -21 35 -11 39 -23 72 -27 75 -4 3 -10 13 -14 23 -15 39 16 3 39
-47z m-310 44 c73 0 73 0 64 -24 -5 -13 -6 -27 -2 -31 3 -3 0 -3 -9 0 -8 3
-33 -1 -55 -9 -33 -11 -46 -11 -70 -1 -16 6 -35 10 -42 7 -9 -3 -11 3 -6 25
10 40 14 45 31 39 8 -3 48 -6 89 -6z m-293 -7 c-7 -2 -21 -2 -30 0 -10 3 -4 5
12 5 17 0 24 -2 18 -5z m44 -9 c-3 -3 -12 -4 -19 -1 -8 3 -5 6 6 6 11 1 17 -2
13 -5z m93 -24 c8 -5 11 -10 5 -10 -5 0 -17 5 -25 10 -8 5 -10 10 -5 10 6 0
17 -5 25 -10z m-33 -16 c-3 -3 -12 -4 -19 -1 -8 3 -5 6 6 6 11 1 17 -2 13 -5z
m1320 -94 l122 1 55 -40 c30 -23 62 -41 71 -41 9 0 41 -24 71 -54 30 -29 80
-67 112 -84 72 -40 57 -41 -23 -2 l-60 29 35 -29 c19 -16 61 -43 93 -60 31
-17 57 -32 57 -34 0 -4 -308 -9 -380 -6 -146 7 -236 4 -255 -8 -17 -11 -15
-12 16 -6 20 3 39 1 43 -4 4 -6 -30 -13 -87 -17 -97 -8 -280 -49 -285 -66 -2
-5 -8 -7 -13 -3 -5 3 -9 0 -9 -5 0 -6 -5 -11 -11 -11 -5 0 -7 6 -3 13 6 9 4 9
-8 -1 -11 -9 -23 -10 -42 -2 -20 7 -25 7 -20 -2 5 -8 -3 -9 -29 -5 -21 3 -37
2 -37 -4 0 -5 -10 -7 -22 -4 -21 5 -77 14 -105 17 -7 1 -13 5 -13 9 0 4 6 9
13 12 24 9 -59 18 -231 25 -94 4 -172 4 -172 0 0 -5 46 -9 103 -10 56 0 107
-2 112 -3 6 -2 25 -3 43 -4 17 0 32 -4 32 -8 0 -5 -53 -9 -118 -10 -64 -1
-137 -6 -162 -12 -36 -7 -16 -9 98 -8 129 2 142 0 142 -15 0 -11 -8 -18 -21
-18 -11 0 -17 5 -14 10 3 6 2 10 -3 10 -6 0 -13 -7 -16 -16 -3 -8 -10 -12 -16
-9 -5 3 -10 2 -10 -2 0 -12 -250 -4 -276 8 -22 11 -245 7 -343 -7 l-53 -7 27
27 c18 18 24 32 20 46 -5 17 13 40 87 113 51 51 119 123 151 160 35 40 66 67
78 67 10 0 19 3 19 8 0 15 415 17 474 1 101 -27 153 -88 222 -263 15 -39 29
-65 32 -58 2 7 8 10 13 6 16 -9 11 1 -62 136 l-71 131 23 26 c63 67 188 95
384 86 55 -2 155 -3 222 -3z m-1942 -26 c32 -2 61 -7 64 -9 7 -7 -610 -6 -663
1 -25 4 -46 11 -46 17 0 10 513 3 645 -9z m1271 -5 c3 -5 -1 -9 -10 -9 -21 0
-46 11 -46 20 0 10 49 0 56 -11z m-966 -103 c0 -2 3 -11 6 -19 4 -11 0 -15
-13 -13 -23 4 -31 36 -9 36 9 0 16 -2 16 -4z m-470 -60 c0 -8 -133 -66 -153
-66 -19 0 -20 1 -2 20 10 11 28 20 39 21 16 0 101 21 114 28 1 0 2 -1 2 -3z
m640 -70 c0 -2 -7 -9 -15 -16 -13 -11 -14 -10 -9 4 5 14 24 23 24 12z m1882
-108 c-2 -10 1 -18 7 -18 6 0 11 -5 11 -10 0 -7 -6 -7 -19 -1 -10 6 -27 9 -38
7 -10 -2 -81 -7 -158 -10 -201 -9 -319 -17 -324 -22 -10 -10 13 -10 169 -2
316 15 384 16 404 6 19 -10 18 -11 -7 -25 -52 -27 -677 -67 -691 -44 -4 6 -12
9 -17 6 -5 -4 -9 -1 -9 4 0 6 -9 11 -21 11 -12 0 -18 4 -13 11 3 6 0 15 -7 20
-7 4 -11 10 -9 13 3 2 50 16 106 30 120 31 264 44 470 42 138 -1 150 -2 146
-18z m-2162 -55 c0 -5 -11 -8 -25 -8 -14 0 -25 3 -25 8 0 4 11 7 25 7 14 0 25
-3 25 -7z m1010 -28 c0 -8 5 -15 11 -15 5 0 7 5 4 10 -8 12 33 12 60 -1 17 -8
17 -9 -7 -6 -18 3 -25 0 -21 -9 3 -9 -3 -11 -19 -7 -18 4 -20 2 -8 -6 8 -5 11
-13 7 -17 -3 -4 -13 -2 -20 4 -8 7 -17 9 -20 5 -4 -3 -17 2 -29 13 -19 17 -21
17 -15 2 8 -23 -1 -23 -25 -1 -18 16 -18 16 -12 0 4 -13 1 -17 -15 -17 -24 0
-29 28 -6 36 8 4 12 10 9 15 -3 5 20 9 50 9 43 0 56 -3 56 -15z m-497 -22 c-7
-2 -19 -2 -25 0 -7 3 -2 5 12 5 14 0 19 -2 13 -5z m332 -3 c3 -5 1 -10 -4 -10
-6 0 -11 5 -11 10 0 6 2 10 4 10 3 0 8 -4 11 -10z m-845 -9 c0 -5 3 -16 6 -25
5 -12 0 -16 -20 -16 -27 0 -31 7 -20 34 7 17 34 22 34 7z m-550 -11 c11 -7 2
-10 -32 -10 -27 0 -48 5 -48 10 0 13 60 13 80 0z m473 -5 c41 -17 6 -20 -170
-13 -104 4 -210 7 -236 7 -33 0 -47 3 -42 11 7 12 416 8 448 -5z m1384 -37
c-3 -8 -6 -5 -6 6 -1 11 2 17 5 13 3 -3 4 -12 1 -19z m1250 -134 c-3 -3 -12
-4 -19 -1 -8 3 -5 6 6 6 11 1 17 -2 13 -5z m-2967 -358 c0 -2 -13 -6 -30 -8
-16 -3 -30 -1 -30 4 0 4 14 8 30 8 17 0 30 -2 30 -4z"/>
<path d="M1535 1600 c-3 -5 -1 -10 4 -10 6 0 11 5 11 10 0 6 -2 10 -4 10 -3 0
-8 -4 -11 -10z"/>
<path d="M2004 1215 c-9 -13 -14 -28 -12 -33 1 -5 10 6 19 24 19 40 16 44 -7
9z"/>
<path d="M2221 1204 c0 -11 3 -14 6 -6 3 7 2 16 -1 19 -3 4 -6 -2 -5 -13z"/>
<path d="M3125 1260 c10 -11 20 -20 23 -20 3 0 -3 9 -13 20 -10 11 -20 20 -23
20 -3 0 3 -9 13 -20z"/>
<path d="M2968 803 c6 -2 18 -2 25 0 6 3 1 5 -13 5 -14 0 -19 -2 -12 -5z"/>
<path d="M1228 723 c17 -2 47 -2 65 0 17 2 3 4 -33 4 -36 0 -50 -2 -32 -4z"/>
<path d="M1045 690 c-3 -6 1 -7 9 -4 18 7 21 14 7 14 -6 0 -13 -4 -16 -10z"/>
<path d="M1625 650 c-3 -5 -2 -10 4 -10 5 0 13 5 16 10 3 6 2 10 -4 10 -5 0
-13 -4 -16 -10z"/>
<path d="M2628 733 c7 -3 16 -2 19 1 4 3 -2 6 -13 5 -11 0 -14 -3 -6 -6z"/>
<path d="M545 3550 c-4 -12 -5 -24 -2 -27 3 -2 8 5 12 17 4 12 5 24 2 27 -3 2
-8 -5 -12 -17z"/>
<path d="M2466 3555 c-17 -13 -16 -14 17 -8 40 6 38 10 61 -112 24 -131 38
-360 27 -439 -10 -70 -8 -86 10 -86 13 0 4 372 -12 465 -6 39 -12 87 -14 107
-3 45 -29 88 -53 88 -9 0 -25 -7 -36 -15z"/>
<path d="M626 3542 c5 -4 32 -26 59 -48 28 -21 86 -73 130 -114 l80 -75 -56
65 c-66 76 -185 180 -208 180 -9 0 -11 -3 -5 -8z"/>
<path d="M730 3526 c0 -2 8 -10 18 -17 15 -13 16 -12 3 4 -13 16 -21 21 -21
13z"/>
<path d="M2448 3513 c-28 -7 -21 -18 12 -18 17 0 29 4 27 9 -4 12 -17 15 -39
9z"/>
<path d="M531 3494 c0 -11 3 -14 6 -6 3 7 2 16 -1 19 -3 4 -6 -2 -5 -13z"/>
<path d="M2358 3454 c-27 -20 -48 -40 -48 -46 0 -5 -4 -7 -9 -4 -11 7 -155
-143 -176 -184 -28 -54 -10 -44 48 27 57 70 169 181 222 220 17 12 26 22 20
22 -5 0 -31 -16 -57 -35z m-78 -78 c0 -2 -8 -10 -17 -17 -16 -13 -17 -12 -4 4
13 16 21 21 21 13z"/>
<path d="M521 3454 c0 -11 3 -14 6 -6 3 7 2 16 -1 19 -3 4 -6 -2 -5 -13z"/>
<path d="M511 3414 c0 -11 3 -14 6 -6 3 7 2 16 -1 19 -3 4 -6 -2 -5 -13z"/>
<path d="M2080 3349 c-74 -39 -177 -93 -229 -121 l-94 -50 -81 16 c-80 16
-316 23 -302 9 4 -4 57 -7 119 -8 72 0 120 -5 135 -13 12 -7 51 -15 86 -18 57
-4 69 -1 113 24 89 54 328 190 361 206 17 9 32 19 32 21 0 7 6 10 -140 -66z"/>
<path d="M501 3354 c0 -11 3 -14 6 -6 3 7 2 16 -1 19 -3 4 -6 -2 -5 -13z"/>
<path d="M482 3257 c-27 -176 -36 -336 -23 -415 22 -140 23 -144 33 -134 5 5
5 64 -1 148 -5 80 -6 209 -1 304 4 91 7 166 6 167 -1 2 -8 -30 -14 -70z"/>
<path d="M1061 3274 c7 -9 40 -29 73 -46 34 -17 65 -37 69 -44 9 -16 83 -19
92 -4 3 6 -4 9 -17 8 -13 -1 -69 21 -126 50 -57 28 -98 44 -91 36z"/>
<path d="M920 3266 c0 -2 8 -10 18 -17 15 -13 16 -12 3 4 -13 16 -21 21 -21
13z"/>
<path d="M1315 3190 c3 -5 11 -10 16 -10 6 0 7 5 4 10 -3 6 -11 10 -16 10 -6
0 -7 -4 -4 -10z"/>
<path d="M435 2808 c-4 -13 -19 -35 -33 -50 l-26 -28 27 -28 c30 -31 35 -60
13 -68 -20 -8 -28 -32 -17 -52 8 -16 -7 -17 -195 -14 -127 2 -204 -1 -204 -7
0 -7 412 -22 428 -15 1 0 -3 16 -10 34 -10 30 -9 35 10 51 28 22 27 25 -3 61
l-26 30 26 24 c16 15 25 34 25 54 0 36 -6 39 -15 8z"/>
<path d="M2569 2813 c0 -10 -4 -45 -8 -77 -7 -54 -5 -61 16 -85 l24 -26 -17
28 c-13 22 -15 41 -9 102 4 41 4 75 1 75 -3 0 -6 -8 -7 -17z"/>
<path d="M627 2749 c7 -7 15 -10 18 -7 3 3 -2 9 -12 12 -14 6 -15 5 -6 -5z"/>
<path d="M615 2720 c4 -6 11 -8 16 -5 14 9 11 15 -7 15 -8 0 -12 -5 -9 -10z"/>
<path d="M975 2596 c-35 -15 -91 -69 -111 -107 -23 -44 -27 -101 -10 -124 14
-19 15 -17 16 29 0 45 4 53 49 97 27 28 57 49 70 49 19 0 19 -3 -13 -45 -55
-72 -56 -161 0 -205 14 -12 14 -9 -4 14 -26 35 -28 61 -4 70 9 3 23 9 30 12 7
4 12 -2 12 -16 0 -17 4 -20 18 -15 23 10 66 7 70 -5 2 -6 8 -8 13 -4 5 3 9 0
9 -6 0 -6 -11 -16 -25 -22 -14 -6 -25 -15 -25 -19 0 -5 16 -1 35 8 28 13 35
23 35 45 0 19 5 28 16 28 14 0 16 10 12 59 -5 70 -41 131 -93 155 -40 19 -60
20 -100 2z m105 -106 c0 -13 -7 -20 -20 -20 -13 0 -20 7 -20 20 0 13 7 20 20
20 13 0 20 -7 20 -20z"/>
<path d="M1816 2575 c-22 -8 -51 -22 -65 -33 -38 -28 -80 -110 -81 -157 0 -34
6 -46 40 -77 22 -21 45 -38 52 -37 7 0 3 5 -9 11 -31 15 -37 37 -10 43 12 3
59 6 104 7 79 3 82 2 77 -17 -4 -11 -7 -20 -8 -21 -39 -25 -48 -34 -35 -34 8
0 24 7 36 15 60 42 41 202 -29 245 -39 24 -22 26 29 5 74 -31 117 -98 111
-172 -3 -38 -2 -41 10 -26 29 38 -1 147 -57 206 -52 57 -94 67 -165 42z m38
-94 c9 -15 -23 -36 -36 -23 -5 5 -7 15 -4 21 9 13 33 14 40 2z"/>
<path d="M441 2548 c-2 -28 -38 -33 -244 -30 l-197 3 0 -74 0 -74 26 5 c15 3
29 -1 33 -7 6 -8 56 -12 172 -12 90 0 175 2 188 3 13 2 26 -3 28 -9 3 -9 -10
-13 -44 -14 -26 0 -41 -3 -33 -6 37 -12 60 -28 60 -41 0 -11 8 -13 32 -8 18 3
37 11 43 18 7 8 6 9 -2 4 -19 -10 -55 71 -42 95 10 20 0 26 -17 9 -8 -8 -15
-6 -24 4 -10 13 -9 17 11 25 23 9 22 10 -8 10 -18 1 -33 4 -33 7 0 3 14 24 31
45 17 21 28 45 26 51 -3 8 -6 7 -6 -4z m29 -238 c0 -5 -2 -10 -4 -10 -3 0 -8
5 -11 10 -3 6 -1 10 4 10 6 0 11 -4 11 -10z"/>
<path d="M944 2505 c-16 -12 -17 -14 -3 -15 9 0 19 7 23 15 7 19 5 19 -20 0z"/>
<path d="M668 2303 c12 -2 30 -2 40 0 9 3 -1 5 -23 4 -22 0 -30 -2 -17 -4z"/>
<path d="M1365 2279 c-23 -22 -40 -29 -70 -30 -32 0 -36 -2 -19 -9 16 -6 20
-15 17 -32 -2 -13 3 -32 12 -43 14 -19 15 -18 3 9 -11 26 -10 30 22 57 62 50
77 55 102 33 20 -18 20 -17 -2 14 -13 17 -26 32 -29 31 -3 0 -19 -13 -36 -30z"/>
<path d="M1788 2263 c7 -3 16 -2 19 1 4 3 -2 6 -13 5 -11 0 -14 -3 -6 -6z"/>
<path d="M410 2239 c-36 -5 -39 -7 -15 -9 19 -1 23 -4 13 -7 -10 -2 -18 -9
-18 -14 0 -6 4 -8 9 -5 10 7 25 -22 22 -41 -1 -8 5 -10 15 -6 13 5 15 2 10
-13 -4 -15 6 -31 39 -64 24 -24 42 -47 40 -50 -3 -4 10 -11 28 -14 l32 -7 -25
-15 -25 -15 30 6 c40 7 70 -25 78 -81 5 -46 1 -50 -79 -78 -31 -11 -45 -11
-53 -3 -8 8 -11 8 -11 -1 0 -7 -6 -12 -12 -12 -34 0 -118 -50 -132 -79 -10
-19 -21 -28 -31 -25 -8 3 -29 -1 -46 -10 -18 -9 -48 -16 -68 -16 -30 0 -46 -9
-94 -54 -33 -31 -57 -63 -57 -75 0 -11 -5 -23 -10 -26 -6 -3 -10 -19 -10 -34
0 -16 -9 -40 -20 -54 -24 -30 -27 -93 -5 -124 13 -19 13 -22 0 -27 -11 -4 -15
-21 -15 -57 l0 -52 29 39 c59 81 188 199 257 235 116 62 249 98 393 106 69 5
138 8 154 7 33 0 34 7 6 32 -12 10 -44 50 -71 89 -27 38 -56 70 -65 70 -9 0
-19 7 -21 15 -5 13 -3 13 11 1 24 -19 21 -3 -9 64 -21 46 -25 66 -20 103 8 56
28 81 61 74 29 -5 56 -32 32 -32 -16 0 -27 -29 -27 -73 0 -42 55 -191 89 -241
17 -24 42 -53 56 -64 30 -24 31 -29 8 -35 -10 -3 23 -5 72 -6 50 -1 113 -3
140 -5 28 -2 40 -2 27 1 -18 3 -22 9 -16 26 15 51 43 106 74 143 31 38 31 37
-8 -4 -22 -23 -50 -62 -61 -85 -12 -23 -21 -35 -21 -27 0 74 82 178 185 236
135 75 307 124 544 155 139 17 141 18 51 14 -105 -5 -112 -6 -252 -35 -128
-27 -208 -53 -294 -97 l-72 -36 -64 55 c-61 52 -259 159 -318 172 -26 6 2 -9
115 -60 66 -30 152 -81 173 -101 8 -7 29 -25 48 -39 l33 -26 -54 -50 c-31 -28
-65 -72 -80 -103 l-27 -53 -34 66 c-66 126 -178 244 -289 303 -37 20 -47 21
-70 11 -15 -7 -29 -21 -32 -32 -3 -11 -7 -20 -10 -20 -6 0 -101 80 -130 109
-13 14 -21 30 -19 38 3 7 -1 16 -8 20 -22 14 -27 43 -11 66 8 12 15 27 15 34
0 12 -4 12 -80 2z m423 -298 c29 -21 63 -51 77 -66 l25 -27 -47 24 c-26 12
-47 29 -48 36 0 6 -7 12 -15 12 -9 0 -18 7 -21 15 -4 8 -12 15 -20 15 -8 0
-14 7 -14 15 0 21 5 20 63 -24z m-167 -113 c4 -15 1 -25 -12 -35 -24 -17 -38
-17 -31 2 4 8 2 17 -3 20 -9 5 -25 -13 -25 -29 0 -5 -6 -11 -14 -14 -9 -3 -11
0 -6 8 9 15 -44 5 -92 -17 -30 -14 -31 -16 -15 -33 9 -9 28 -23 42 -30 75 -39
130 -111 99 -131 -29 -18 -56 -8 -99 37 -25 25 -66 57 -92 70 -27 13 -48 29
-48 34 0 18 43 50 89 66 25 9 78 29 116 44 87 35 82 34 91 8z m144 -17 c0 -6
-4 -13 -10 -16 -5 -3 -10 1 -10 9 0 9 5 16 10 16 6 0 10 -4 10 -9z m140 -112
c0 -6 -4 -7 -10 -4 -5 3 -10 11 -10 16 0 6 5 7 10 4 6 -3 10 -11 10 -16z m-70
-9 c0 -5 -5 -10 -11 -10 -5 0 -7 5 -4 10 3 6 8 10 11 10 2 0 4 -4 4 -10z
m-475 -29 c38 -17 127 -85 133 -100 1 -4 -23 -13 -54 -20 -51 -12 -161 -55
-207 -81 -10 -6 -29 -15 -43 -20 -22 -9 -24 -8 -14 10 8 16 8 18 -4 14 -8 -3
-16 -15 -19 -26 -6 -20 -6 -20 -31 -1 -32 23 -39 51 -26 109 20 86 57 132 98
120 9 -3 24 -1 32 4 24 15 92 11 135 -9z m218 -21 c55 -51 35 -51 -22 0 -24
22 -38 40 -32 40 7 0 31 -18 54 -40z m307 0 c-24 -15 -37 -11 -16 5 11 8 22
12 25 9 3 -3 -1 -9 -9 -14z m-796 -80 c-20 -77 -18 -96 14 -125 l27 -26 -54
-51 -54 -51 -29 32 c-33 37 -35 53 -8 92 12 15 28 52 36 80 14 45 67 119 79
108 2 -2 -3 -29 -11 -59z"/>
<path d="M5 2230 c-3 -5 3 -10 14 -10 11 0 23 5 26 10 3 6 -3 10 -14 10 -11 0
-23 -4 -26 -10z"/>
<path d="M70 2231 c0 -5 19 -8 43 -6 23 2 47 -1 52 -5 6 -5 35 -2 65 5 l55 13
-107 1 c-60 1 -108 -3 -108 -8z"/>
<path d="M1506 2213 c4 -16 11 -32 17 -38 6 -7 7 -1 3 17 -4 20 -1 30 11 37
15 9 14 10 -10 11 -25 0 -27 -3 -21 -27z"/>
<path d="M580 2209 c0 -4 14 -9 30 -11 17 -3 30 -1 30 3 0 4 -13 9 -30 11 -16
3 -30 1 -30 -3z"/>
<path d="M2182 2209 c-53 -11 -50 -20 4 -13 55 8 60 10 42 16 -7 3 -28 1 -46
-3z"/>
<path d="M2350 2209 c0 -9 80 -16 86 -8 2 4 -16 9 -41 11 -25 2 -45 0 -45 -3z"/>
<path d="M660 2190 c8 -5 29 -9 45 -9 26 0 27 2 10 9 -11 5 -31 9 -45 9 -20 1
-22 -1 -10 -9z"/>
<path d="M2455 2190 c3 -5 11 -10 16 -10 6 0 7 5 4 10 -3 6 -11 10 -16 10 -6
0 -7 -4 -4 -10z"/>
<path d="M2507 2163 c-10 -9 -9 -23 2 -23 5 0 11 7 15 15 5 15 -5 20 -17 8z"/>
<path d="M110 2129 c0 -5 -5 -7 -12 -3 -7 4 -8 3 -4 -4 4 -6 13 -9 21 -5 17 6
20 23 5 23 -5 0 -10 -5 -10 -11z"/>
<path d="M657 2129 c7 -7 15 -10 18 -7 3 3 -2 9 -12 12 -14 6 -15 5 -6 -5z"/>
<path d="M2018 2133 c6 -2 18 -2 25 0 6 3 1 5 -13 5 -14 0 -19 -2 -12 -5z"/>
<path d="M690 2126 c0 -2 7 -7 16 -10 8 -3 12 -2 9 4 -6 10 -25 14 -25 6z"/>
<path d="M2258 2083 c7 -3 16 -2 19 1 4 3 -2 6 -13 5 -11 0 -14 -3 -6 -6z"/>
<path d="M2283 2053 c9 -2 25 -2 35 0 9 3 1 5 -18 5 -19 0 -27 -2 -17 -5z"/>
<path d="M1998 2023 c17 -2 47 -2 65 0 17 2 3 4 -33 4 -36 0 -50 -2 -32 -4z"/>
<path d="M1928 1983 c7 -3 16 -2 19 1 4 3 -2 6 -13 5 -11 0 -14 -3 -6 -6z"/>
<path d="M2325 1960 c-3 -5 1 -10 9 -10 9 0 16 5 16 10 0 6 -4 10 -9 10 -6 0
-13 -4 -16 -10z"/>
<path d="M11 1538 c-10 -16 -9 -19 6 -16 29 5 45 35 19 35 -7 0 -19 -9 -25
-19z"/>
<path d="M190 1330 c20 -11 170 -21 170 -11 0 9 -84 21 -145 21 -28 -1 -36 -3
-25 -10z"/>
<path d="M268 1283 c7 -3 16 -2 19 1 4 3 -2 6 -13 5 -11 0 -14 -3 -6 -6z"/>
<path d="M405 1280 l-100 -6 108 -2 c70 -1 106 2 102 8 -3 6 -7 9 -8 8 -1 -1
-47 -5 -102 -8z"/>
<path d="M480 1206 c0 -10 28 -13 41 -5 10 6 7 9 -13 9 -16 0 -28 -2 -28 -4z"/>
<path d="M438 1193 c7 -3 16 -2 19 1 4 3 -2 6 -13 5 -11 0 -14 -3 -6 -6z"/>
<path d="M1581 1184 c0 -11 3 -14 6 -6 3 7 2 16 -1 19 -3 4 -6 -2 -5 -13z"/>
<path d="M968 1183 c7 -3 16 -2 19 1 4 3 -2 6 -13 5 -11 0 -14 -3 -6 -6z"/>
<path d="M1013 1183 c9 -2 23 -2 30 0 6 3 -1 5 -18 5 -16 0 -22 -2 -12 -5z"/>
<path d="M725 1140 c3 -5 22 -10 41 -10 21 0 33 4 29 10 -3 6 -22 10 -41 10
-21 0 -33 -4 -29 -10z"/>
<path d="M1133 1143 c9 -2 25 -2 35 0 9 3 1 5 -18 5 -19 0 -27 -2 -17 -5z"/>
<path d="M1323 1143 c9 -2 23 -2 30 0 6 3 -1 5 -18 5 -16 0 -22 -2 -12 -5z"/>
<path d="M838 1133 c6 -2 18 -2 25 0 6 3 1 5 -13 5 -14 0 -19 -2 -12 -5z"/>
<path d="M1408 1133 c6 -2 18 -2 25 0 6 3 1 5 -13 5 -14 0 -19 -2 -12 -5z"/>
<path d="M3807 55 c-15 -31 -23 -54 -17 -50 14 9 52 84 48 96 -2 6 -16 -15
-31 -46z"/>
</g>
</svg>
